<?xml version="1.0" encoding="UTF-8"?>
<svg version="1.1" xmlns="http://www.w3.org/2000/svg" width="512" height="512">
<path d="M0 0 C1.90585876 -0.01354271 1.90585876 -0.01354271 3.85021973 -0.02735901 C6.53294011 -0.04179537 9.21523713 -0.05152411 11.89794922 -0.05444336 C15.90249151 -0.0607935 19.90593035 -0.11536363 23.91015625 -0.16601562 C54.70205197 -0.35901428 83.98520249 5.80833457 112.46875 17.37109375 C113.7995459 17.90186523 113.7995459 17.90186523 115.15722656 18.44335938 C122.68186573 21.49847603 129.89716309 24.98827004 137.09375 28.74609375 C138.14820313 29.28492187 139.20265625 29.82375 140.2890625 30.37890625 C147.07828013 33.90795502 153.29041439 37.86782896 159.46875 42.37109375 C160.5 43.05171875 161.53125 43.73234375 162.59375 44.43359375 C180.19790847 56.29726576 198.07042242 70.82209056 211.46875 87.37109375 C212.57669922 88.716875 212.57669922 88.716875 213.70703125 90.08984375 C215.27049989 91.9936419 216.82803137 93.90233502 218.37890625 95.81640625 C220.06057548 97.87212902 221.77934591 99.8760075 223.53125 101.87109375 C225.46875 104.37109375 225.46875 104.37109375 225.46875 107.37109375 C226.12875 107.37109375 226.78875 107.37109375 227.46875 107.37109375 C228.92069365 109.25162317 230.28239605 111.20246224 231.59375 113.18359375 C232.31820313 114.26253906 233.04265625 115.34148437 233.7890625 116.453125 C235.46875 119.37109375 235.46875 119.37109375 235.46875 122.37109375 C236.12875 122.37109375 236.78875 122.37109375 237.46875 122.37109375 C238.89535364 124.98653376 240.32161389 127.60215225 241.74609375 130.21875 C242.85666734 132.25102413 243.97340116 134.27994991 245.09765625 136.3046875 C245.86916016 137.69880859 245.86916016 137.69880859 246.65625 139.12109375 C247.12417969 139.9615625 247.59210938 140.80203125 248.07421875 141.66796875 C249.71098693 144.84063984 251.08797529 148.07901765 252.46875 151.37109375 C253.01737853 152.62797581 253.56687975 153.88447726 254.1171875 155.140625 C258.16573278 164.54538522 261.24320737 173.94252653 263.79345703 183.8515625 C264.62667454 186.96031327 265.53748906 190.04389603 266.44140625 193.1328125 C280.76433959 243.34177663 275.73890736 297.63847149 258.46875 346.37109375 C258.18499512 347.17434082 257.90124023 347.97758789 257.60888672 348.80517578 C252.82751874 362.06246718 246.28028856 374.67167828 239.01171875 386.72265625 C237.36559212 389.54815968 235.90318967 392.43329237 234.46875 395.37109375 C233.80875 395.37109375 233.14875 395.37109375 232.46875 395.37109375 C232.200625 396.09296875 231.9325 396.81484375 231.65625 397.55859375 C230.46973638 400.36875758 229.19389361 402.85525932 227.46875 405.37109375 C226.80875 405.37109375 226.14875 405.37109375 225.46875 405.37109375 C225.13875 406.69109375 224.80875 408.01109375 224.46875 409.37109375 C223.80875 409.37109375 223.14875 409.37109375 222.46875 409.37109375 C222.14970703 410.39783203 222.14970703 410.39783203 221.82421875 411.4453125 C220.05015873 415.27462361 217.56856185 418.04680503 214.78125 421.18359375 C214.23887695 421.80379395 213.69650391 422.42399414 213.13769531 423.06298828 C212.06468456 424.2889656 210.98907745 425.51267629 209.91064453 426.73388672 C208.16036388 428.72125246 206.44184195 430.73515349 204.71875 432.74609375 C198.68574929 439.57672677 192.2298944 445.53701851 185.08203125 451.1953125 C182.38007422 453.36926083 182.38007422 453.36926083 179.82421875 456.078125 C177.46875 458.37109375 177.46875 458.37109375 174.46875 459.37109375 C173.13115458 460.70015133 171.79847813 462.03416493 170.46875 463.37109375 C168.62282951 464.68380846 166.74484792 465.95214377 164.84375 467.18359375 C161.05302944 469.65441281 157.35408711 472.17847965 153.71875 474.87109375 C147.65922017 479.14783587 141.03648739 482.23697424 134.37158203 485.44091797 C131.72704519 486.73366693 129.13540698 488.12416511 126.53125 489.49609375 C120.36344564 492.59261763 113.9500208 494.78266238 107.4296875 497 C104.38986887 498.03626948 101.42572435 499.17713195 98.46875 500.43359375 C73.72512644 510.36387054 47.20663081 513.24119369 20.75708008 513.02294922 C16.90281209 512.99606977 13.05144854 513.02293769 9.19726562 513.0546875 C-11.29880028 513.08429222 -31.51026074 511.1305219 -50.93067932 504.24234009 C-53.25557445 503.46345091 -55.50137001 502.89298889 -57.90625 502.43359375 C-65.09901141 500.95815551 -72.77667208 498.6342059 -79.078125 494.8359375 C-81.8244801 493.19599616 -84.49567757 492.37170837 -87.53125 491.37109375 C-90.11532283 490.22489816 -92.63522072 488.96164731 -95.15625 487.68359375 C-96.20631226 487.15403076 -96.20631226 487.15403076 -97.27758789 486.61376953 C-105.91318057 482.21470977 -114.22813405 477.3742696 -122.234375 471.91015625 C-125.77779414 469.53582438 -129.41737206 467.31555551 -133.05078125 465.08203125 C-135.51723504 463.38076076 -137.44827237 461.51293814 -139.53125 459.37109375 C-140.170625 459.06171875 -140.81 458.75234375 -141.46875 458.43359375 C-144.367773 456.94015766 -146.2249596 454.67738415 -148.53125 452.37109375 C-150.70583871 450.4557869 -152.9340983 448.60582126 -155.15625 446.74609375 C-165.29508954 438.13653917 -174.36553329 428.89695022 -182.53125 418.37109375 C-183.0557373 417.69643066 -183.58022461 417.02176758 -184.12060547 416.32666016 C-194.78291372 402.57558326 -203.98471505 388.82145071 -211.64453125 373.15478516 C-212.48815295 371.45778622 -213.36817789 369.77902866 -214.25 368.1015625 C-220.94468974 355.27514557 -226.85233556 341.42883324 -229.86328125 327.234375 C-230.45333429 324.70508332 -231.16588506 322.28266809 -231.9375 319.8046875 C-243.9155673 280.03779719 -244.24793523 227.78175074 -230.23901367 188.42553711 C-229.48878506 186.24782971 -228.87466414 184.06230834 -228.28515625 181.8359375 C-227.98834961 180.71541992 -227.98834961 180.71541992 -227.68554688 179.57226562 C-227.2903078 178.06044354 -226.89969572 176.54740441 -226.51367188 175.03320312 C-225.27983456 170.41330094 -223.66594257 166.34266093 -221.43920898 162.11108398 C-220.39059561 160.10154714 -219.56838759 158.05806203 -218.78125 155.93359375 C-214.48947402 145.0274336 -209.61057476 134.35671224 -202.9765625 124.66796875 C-201.49119591 122.30744023 -200.48630449 119.98590313 -199.53125 117.37109375 C-198.87125 117.37109375 -198.21125 117.37109375 -197.53125 117.37109375 C-197.28375 116.64921875 -197.03625 115.92734375 -196.78125 115.18359375 C-195.41608061 112.11196262 -193.6559883 109.96061855 -191.53125 107.37109375 C-190.82239106 106.05970471 -190.13668548 104.73332358 -189.53125 103.37109375 C-188.87125 103.37109375 -188.21125 103.37109375 -187.53125 103.37109375 C-187.30179688 102.66984375 -187.07234375 101.96859375 -186.8359375 101.24609375 C-185.27303675 97.80209689 -183.12187422 95.19018007 -180.65625 92.37109375 C-179.9303064 91.52949707 -179.9303064 91.52949707 -179.18969727 90.67089844 C-177.64761767 88.89452566 -176.09246031 87.13066846 -174.53125 85.37109375 C-174.02674316 84.80197266 -173.52223633 84.23285156 -173.00244141 83.64648438 C-164.7879912 74.43867112 -156.27143523 65.77097766 -146.125 58.66015625 C-144.253529 57.27744787 -144.253529 57.27744787 -142.53125 54.37109375 C-141.54125 54.04109375 -140.55125 53.71109375 -139.53125 53.37109375 C-138.995 52.81421875 -138.45875 52.25734375 -137.90625 51.68359375 C-134.59653598 48.46097747 -129.34990555 43.37109375 -124.53125 43.37109375 C-124.53125 42.71109375 -124.53125 42.05109375 -124.53125 41.37109375 C-118.47092317 36.74234019 -111.61268027 33.28959828 -104.7734375 29.9765625 C-101.75951674 28.48412704 -98.80747352 26.91401889 -95.85473633 25.3059082 C-89.54948098 21.87637388 -83.27358877 18.8449015 -76.53125 16.37109375 C-75.28183193 15.8846582 -74.03319726 15.39620785 -72.78515625 14.90625 C-65.66282709 12.13574494 -58.65668488 9.68279553 -51.1796875 8.01171875 C-48.47504741 7.40303872 -48.47504741 7.40303872 -45.703125 6.38671875 C-41.98381837 5.19580776 -38.24899153 4.50921324 -34.40625 3.87109375 C-33.38144531 3.69513672 -33.38144531 3.69513672 -32.3359375 3.515625 C-30.91769785 3.27316859 -29.49860119 3.03567369 -28.07870483 2.80311584 C-26.35745559 2.51120971 -24.63942598 2.19974737 -22.92495728 1.87034607 C-15.24222527 0.45067043 -7.80262225 0.03532474 0 0 Z " fill="#45DD10" transform="translate(238.53125,-0.37109375)"/>
<path d="M0 0 C1.90585876 -0.01354271 1.90585876 -0.01354271 3.85021973 -0.02735901 C6.53294011 -0.04179537 9.21523713 -0.05152411 11.89794922 -0.05444336 C15.90249151 -0.0607935 19.90593035 -0.11536363 23.91015625 -0.16601562 C54.70205197 -0.35901428 83.98520249 5.80833457 112.46875 17.37109375 C113.7995459 17.90186523 113.7995459 17.90186523 115.15722656 18.44335938 C122.68186573 21.49847603 129.89716309 24.98827004 137.09375 28.74609375 C138.14820313 29.28492187 139.20265625 29.82375 140.2890625 30.37890625 C147.07828013 33.90795502 153.29041439 37.86782896 159.46875 42.37109375 C160.5 43.05171875 161.53125 43.73234375 162.59375 44.43359375 C180.19790847 56.29726576 198.07042242 70.82209056 211.46875 87.37109375 C212.57669922 88.716875 212.57669922 88.716875 213.70703125 90.08984375 C215.27049989 91.9936419 216.82803137 93.90233502 218.37890625 95.81640625 C220.06057548 97.87212902 221.77934591 99.8760075 223.53125 101.87109375 C225.46875 104.37109375 225.46875 104.37109375 225.46875 107.37109375 C226.12875 107.37109375 226.78875 107.37109375 227.46875 107.37109375 C228.92069365 109.25162317 230.28239605 111.20246224 231.59375 113.18359375 C232.31820313 114.26253906 233.04265625 115.34148437 233.7890625 116.453125 C235.46875 119.37109375 235.46875 119.37109375 235.46875 122.37109375 C236.12875 122.37109375 236.78875 122.37109375 237.46875 122.37109375 C238.89535364 124.98653376 240.32161389 127.60215225 241.74609375 130.21875 C242.85666734 132.25102413 243.97340116 134.27994991 245.09765625 136.3046875 C245.86916016 137.69880859 245.86916016 137.69880859 246.65625 139.12109375 C247.12417969 139.9615625 247.59210938 140.80203125 248.07421875 141.66796875 C249.71098693 144.84063984 251.08797529 148.07901765 252.46875 151.37109375 C253.01737853 152.62797581 253.56687975 153.88447726 254.1171875 155.140625 C258.16573278 164.54538522 261.24320737 173.94252653 263.79345703 183.8515625 C264.62667454 186.96031327 265.53748906 190.04389603 266.44140625 193.1328125 C280.76433959 243.34177663 275.73890736 297.63847149 258.46875 346.37109375 C258.18499512 347.17434082 257.90124023 347.97758789 257.60888672 348.80517578 C252.82751874 362.06246718 246.28028856 374.67167828 239.01171875 386.72265625 C237.36559212 389.54815968 235.90318967 392.43329237 234.46875 395.37109375 C233.80875 395.37109375 233.14875 395.37109375 232.46875 395.37109375 C232.200625 396.09296875 231.9325 396.81484375 231.65625 397.55859375 C230.46973638 400.36875758 229.19389361 402.85525932 227.46875 405.37109375 C226.80875 405.37109375 226.14875 405.37109375 225.46875 405.37109375 C225.13875 406.69109375 224.80875 408.01109375 224.46875 409.37109375 C223.80875 409.37109375 223.14875 409.37109375 222.46875 409.37109375 C222.14970703 410.39783203 222.14970703 410.39783203 221.82421875 411.4453125 C220.05015873 415.27462361 217.56856185 418.04680503 214.78125 421.18359375 C214.23887695 421.80379395 213.69650391 422.42399414 213.13769531 423.06298828 C212.06468456 424.2889656 210.98907745 425.51267629 209.91064453 426.73388672 C208.16036388 428.72125246 206.44184195 430.73515349 204.71875 432.74609375 C198.68574929 439.57672677 192.2298944 445.53701851 185.08203125 451.1953125 C182.38007422 453.36926083 182.38007422 453.36926083 179.82421875 456.078125 C177.46875 458.37109375 177.46875 458.37109375 174.46875 459.37109375 C173.13115458 460.70015133 171.79847813 462.03416493 170.46875 463.37109375 C168.62282951 464.68380846 166.74484792 465.95214377 164.84375 467.18359375 C161.05302944 469.65441281 157.35408711 472.17847965 153.71875 474.87109375 C147.65922017 479.14783587 141.03648739 482.23697424 134.37158203 485.44091797 C131.72704519 486.73366693 129.13540698 488.12416511 126.53125 489.49609375 C120.36344564 492.59261763 113.9500208 494.78266238 107.4296875 497 C104.38986887 498.03626948 101.42572435 499.17713195 98.46875 500.43359375 C73.72512644 510.36387054 47.20663081 513.24119369 20.75708008 513.02294922 C16.90281209 512.99606977 13.05144854 513.02293769 9.19726562 513.0546875 C-11.29880028 513.08429222 -31.51026074 511.1305219 -50.93067932 504.24234009 C-53.25557445 503.46345091 -55.50137001 502.89298889 -57.90625 502.43359375 C-65.09901141 500.95815551 -72.77667208 498.6342059 -79.078125 494.8359375 C-81.8244801 493.19599616 -84.49567757 492.37170837 -87.53125 491.37109375 C-90.11532283 490.22489816 -92.63522072 488.96164731 -95.15625 487.68359375 C-96.20631226 487.15403076 -96.20631226 487.15403076 -97.27758789 486.61376953 C-105.91318057 482.21470977 -114.22813405 477.3742696 -122.234375 471.91015625 C-125.77779414 469.53582438 -129.41737206 467.31555551 -133.05078125 465.08203125 C-135.51723504 463.38076076 -137.44827237 461.51293814 -139.53125 459.37109375 C-140.170625 459.06171875 -140.81 458.75234375 -141.46875 458.43359375 C-144.367773 456.94015766 -146.2249596 454.67738415 -148.53125 452.37109375 C-150.70583871 450.4557869 -152.9340983 448.60582126 -155.15625 446.74609375 C-165.29508954 438.13653917 -174.36553329 428.89695022 -182.53125 418.37109375 C-183.0557373 417.69643066 -183.58022461 417.02176758 -184.12060547 416.32666016 C-194.78291372 402.57558326 -203.98471505 388.82145071 -211.64453125 373.15478516 C-212.48815295 371.45778622 -213.36817789 369.77902866 -214.25 368.1015625 C-220.94468974 355.27514557 -226.85233556 341.42883324 -229.86328125 327.234375 C-230.45333429 324.70508332 -231.16588506 322.28266809 -231.9375 319.8046875 C-243.9155673 280.03779719 -244.24793523 227.78175074 -230.23901367 188.42553711 C-229.48878506 186.24782971 -228.87466414 184.06230834 -228.28515625 181.8359375 C-227.98834961 180.71541992 -227.98834961 180.71541992 -227.68554688 179.57226562 C-227.2903078 178.06044354 -226.89969572 176.54740441 -226.51367188 175.03320312 C-225.27983456 170.41330094 -223.66594257 166.34266093 -221.43920898 162.11108398 C-220.39059561 160.10154714 -219.56838759 158.05806203 -218.78125 155.93359375 C-214.48947402 145.0274336 -209.61057476 134.35671224 -202.9765625 124.66796875 C-201.49119591 122.30744023 -200.48630449 119.98590313 -199.53125 117.37109375 C-198.87125 117.37109375 -198.21125 117.37109375 -197.53125 117.37109375 C-197.28375 116.64921875 -197.03625 115.92734375 -196.78125 115.18359375 C-195.41608061 112.11196262 -193.6559883 109.96061855 -191.53125 107.37109375 C-190.82239106 106.05970471 -190.13668548 104.73332358 -189.53125 103.37109375 C-188.87125 103.37109375 -188.21125 103.37109375 -187.53125 103.37109375 C-187.30179688 102.66984375 -187.07234375 101.96859375 -186.8359375 101.24609375 C-185.27303675 97.80209689 -183.12187422 95.19018007 -180.65625 92.37109375 C-179.9303064 91.52949707 -179.9303064 91.52949707 -179.18969727 90.67089844 C-177.64761767 88.89452566 -176.09246031 87.13066846 -174.53125 85.37109375 C-174.02674316 84.80197266 -173.52223633 84.23285156 -173.00244141 83.64648438 C-164.7879912 74.43867112 -156.27143523 65.77097766 -146.125 58.66015625 C-144.253529 57.27744787 -144.253529 57.27744787 -142.53125 54.37109375 C-141.54125 54.04109375 -140.55125 53.71109375 -139.53125 53.37109375 C-138.995 52.81421875 -138.45875 52.25734375 -137.90625 51.68359375 C-134.59653598 48.46097747 -129.34990555 43.37109375 -124.53125 43.37109375 C-124.53125 42.71109375 -124.53125 42.05109375 -124.53125 41.37109375 C-118.47092317 36.74234019 -111.61268027 33.28959828 -104.7734375 29.9765625 C-101.75951674 28.48412704 -98.80747352 26.91401889 -95.85473633 25.3059082 C-89.54948098 21.87637388 -83.27358877 18.8449015 -76.53125 16.37109375 C-75.28183193 15.8846582 -74.03319726 15.39620785 -72.78515625 14.90625 C-65.66282709 12.13574494 -58.65668488 9.68279553 -51.1796875 8.01171875 C-48.47504741 7.40303872 -48.47504741 7.40303872 -45.703125 6.38671875 C-41.98381837 5.19580776 -38.24899153 4.50921324 -34.40625 3.87109375 C-33.38144531 3.69513672 -33.38144531 3.69513672 -32.3359375 3.515625 C-30.91769785 3.27316859 -29.49860119 3.03567369 -28.07870483 2.80311584 C-26.35745559 2.51120971 -24.63942598 2.19974737 -22.92495728 1.87034607 C-15.24222527 0.45067043 -7.80262225 0.03532474 0 0 Z M11.34417725 18.41607666 C-9.89199042 18.875503 -29.16529884 20.86185428 -49.53125 27.37109375 C-50.43617188 27.65065918 -51.34109375 27.93022461 -52.2734375 28.21826172 C-64.31615312 31.94544604 -75.42084241 36.75805611 -86.64648438 42.44213867 C-90.27385415 44.27341132 -93.90130949 45.99933879 -97.65625 47.55859375 C-100.38154572 48.7251029 -102.43121709 49.97510124 -104.65625 51.93359375 C-107.53125 54.37109375 -107.53125 54.37109375 -111.09375 55.87109375 C-114.87450159 57.52087626 -116.6760906 59.44455536 -119.53125 62.37109375 C-120.73882802 63.11563532 -121.9694984 63.82381609 -123.21875 64.49609375 C-126.70231234 66.13926301 -126.70231234 66.13926301 -128.53125 69.37109375 C-129.25183594 69.63148437 -129.97242188 69.891875 -130.71484375 70.16015625 C-134.76034055 71.89955154 -137.44949419 74.71345396 -140.59375 77.74609375 C-141.24915771 78.3702417 -141.90456543 78.99438965 -142.57983398 79.63745117 C-144.57121044 81.54095503 -146.55133778 83.45567867 -148.53125 85.37109375 C-149.11519531 85.92780762 -149.69914062 86.48452148 -150.30078125 87.05810547 C-155.88534901 92.3827358 -161.08565173 97.58688414 -165.1640625 104.19921875 C-166.72449364 106.67807507 -168.43554234 108.98524435 -170.21875 111.30859375 C-170.77949219 112.03949219 -171.34023437 112.77039063 -171.91796875 113.5234375 C-173.53125 115.37109375 -173.53125 115.37109375 -176.53125 117.37109375 C-176.82 118.13421875 -177.10875 118.89734375 -177.40625 119.68359375 C-178.53125 122.37109375 -178.53125 122.37109375 -180.96875 124.74609375 C-183.39231371 127.22876877 -184.37987477 129.06146956 -185.6015625 132.24609375 C-186.78470095 134.95041021 -188.26559435 137.40076476 -189.78125 139.93359375 C-194.39723497 147.71817857 -198.61257303 155.7473608 -202.109375 164.1015625 C-203.53125 167.37109375 -203.53125 167.37109375 -205.53125 170.37109375 C-206.24813657 172.69949393 -206.90084423 175.01958016 -207.53125 177.37109375 C-207.98366361 178.93195441 -208.43961519 180.49179242 -208.8984375 182.05078125 C-215.09315583 202.92537988 -215.09315583 202.92537988 -218.53125 224.37109375 C-218.86125 224.70109375 -219.19125 225.03109375 -219.53125 225.37109375 C-220.4388921 231.83582702 -220.70379858 238.19351559 -220.734375 244.71484375 C-220.74007507 245.68280884 -220.74577515 246.65077393 -220.75164795 247.64807129 C-220.76104331 249.68854703 -220.76761002 251.72903756 -220.77148438 253.76953125 C-220.78113609 256.83491721 -220.81219038 259.89961608 -220.84375 262.96484375 C-220.90719649 274.82183439 -220.04803883 285.77558637 -217.53125 297.37109375 C-216.99855313 300.07724536 -216.48466626 302.7866654 -215.96875 305.49609375 C-215.04049967 310.20552197 -213.87837391 314.76463632 -212.53125 319.37109375 C-211.80968577 322.01342307 -211.10780081 324.66088901 -210.40625 327.30859375 C-210.13361328 328.33436523 -210.13361328 328.33436523 -209.85546875 329.38085938 C-209.41348414 331.04411725 -208.97228362 332.70758345 -208.53125 334.37109375 C-207.87125 334.37109375 -207.21125 334.37109375 -206.53125 334.37109375 C-206.428125 335.19609375 -206.325 336.02109375 -206.21875 336.87109375 C-205.54388987 340.30674534 -204.52913716 343.29644981 -203.25 346.5390625 C-202.62563898 348.13050445 -202.07185283 349.74928527 -201.53125 351.37109375 C-200.87125 351.37109375 -200.21125 351.37109375 -199.53125 351.37109375 C-199.469375 352.17546875 -199.4075 352.97984375 -199.34375 353.80859375 C-198.42892407 357.81975358 -196.80336126 360.65901208 -194.7421875 364.1796875 C-193.2866543 366.81373306 -192.34692636 369.4791503 -191.53125 372.37109375 C-190.87125 372.37109375 -190.21125 372.37109375 -189.53125 372.37109375 C-189.263125 373.23734375 -188.995 374.10359375 -188.71875 374.99609375 C-187.04463036 379.75411799 -185.50677829 383.39556546 -181.90625 386.99609375 C-179.61955082 389.28279293 -178.87944276 390.23735892 -178.53125 393.37109375 C-177.87125 393.37109375 -177.21125 393.37109375 -176.53125 393.37109375 C-176.28375 393.90734375 -176.03625 394.44359375 -175.78125 394.99609375 C-173.60649012 399.12813752 -171.18635252 403.38055533 -167.53125 406.37109375 C-166.87125 406.37109375 -166.21125 406.37109375 -165.53125 406.37109375 C-165.263125 406.95761719 -164.995 407.54414063 -164.71875 408.1484375 C-162.62997308 412.05802324 -159.48861835 415.09783707 -156.53125 418.37109375 C-155.73847656 419.27988281 -154.94570312 420.18867188 -154.12890625 421.125 C-149.81667866 426.00864758 -145.66329547 430.26778179 -140.31640625 433.98828125 C-138.45983444 435.42641346 -137.16795505 436.90465372 -135.71875 438.74609375 C-128.93981487 447.05988212 -118.4126235 452.55828469 -109.53125 458.37109375 C-108.7990625 458.86867188 -108.066875 459.36625 -107.3125 459.87890625 C-102.62365384 462.98619716 -97.9352968 464.83244154 -92.53125 466.37109375 C-92.53125 467.03109375 -92.53125 467.69109375 -92.53125 468.37109375 C-90.86799462 469.08391748 -89.20440314 469.79596792 -87.5390625 470.50390625 C-86.2355486 471.06690252 -84.93811763 471.6442792 -83.6484375 472.23828125 C-80.28244972 473.7682757 -78.3092893 474.37109375 -74.53125 474.37109375 C-74.20125 475.36109375 -73.87125 476.35109375 -73.53125 477.37109375 C-71.87761419 478.26201298 -71.87761419 478.26201298 -69.78125 478.80859375 C-68.54955078 479.18177734 -68.54955078 479.18177734 -67.29296875 479.5625 C-65.92591797 479.96275391 -65.92591797 479.96275391 -64.53125 480.37109375 C-63.58894531 480.66886719 -62.64664063 480.96664063 -61.67578125 481.2734375 C-53.02749946 484.00274316 -44.29679458 486.42191071 -35.54907227 488.80810547 C-33.72405794 489.31729882 -31.91000828 489.86539725 -30.09765625 490.41796875 C5.46635548 499.9224801 48.63538713 495.75454205 83.46875 485.37109375 C84.19578125 485.18289063 84.9228125 484.9946875 85.671875 484.80078125 C94.1852846 482.49371224 102.20546206 478.80238836 110.28491211 475.31347656 C112.29641075 474.44546262 114.31182239 473.58724398 116.328125 472.73046875 C119.27887688 471.45327764 122.15148408 470.06963582 125.015625 468.609375 C126.99622831 467.60961186 128.98857539 466.63313409 130.984375 465.6640625 C131.92108032 465.20628418 131.92108032 465.20628418 132.87670898 464.73925781 C134.12657187 464.12850569 135.37863315 463.52222788 136.63305664 462.92089844 C139.77979439 461.37347979 142.03281418 459.84378956 144.46875 457.37109375 C145.58331587 456.54781974 146.7203553 455.75433136 147.875 454.98828125 C148.53129395 454.54758301 149.18758789 454.10688477 149.86376953 453.65283203 C150.90573486 452.95649658 150.90573486 452.95649658 151.96875 452.24609375 C158.79719787 447.62136523 165.18765676 442.72245546 171.46875 437.37109375 C172.61372728 436.43254843 173.759403 435.49485346 174.90625 434.55859375 C177.21980909 432.58360429 179.35365909 430.5544134 181.46875 428.37109375 C182.190625 427.66984375 182.9125 426.96859375 183.65625 426.24609375 C186.19279875 423.72520271 188.53775557 421.04955893 190.90625 418.37109375 C193.36853233 415.60001033 195.59449138 413.27358003 198.53125 410.99609375 C203.1710915 406.84985241 206.12858735 401.58147144 209.46875 396.37109375 C213.80814457 389.98502597 213.80814457 389.98502597 215.90625 388.03515625 C217.96732654 385.84010974 219.22886742 383.45541923 220.65625 380.80859375 C221.18605469 379.83792969 221.71585937 378.86726563 222.26171875 377.8671875 C223.61386332 375.53310797 223.61386332 375.53310797 223.46875 373.37109375 C224.12875 373.37109375 224.78875 373.37109375 225.46875 373.37109375 C226.45875 370.40109375 227.44875 367.43109375 228.46875 364.37109375 C229.12875 364.37109375 229.78875 364.37109375 230.46875 364.37109375 C230.97278768 363.08099732 231.47184926 361.78895586 231.96875 360.49609375 C232.2471875 359.77679688 232.525625 359.0575 232.8125 358.31640625 C233.57530018 356.39741914 233.57530018 356.39741914 233.46875 354.37109375 C234.12875 354.37109375 234.78875 354.37109375 235.46875 354.37109375 C235.69949219 353.6440625 235.93023437 352.91703125 236.16796875 352.16796875 C237.87750784 346.89745297 239.68427855 341.79597801 241.96875 336.74609375 C244.77520592 330.20921027 246.16145265 323.50975814 247.57421875 316.5703125 C248.35130369 312.77522659 249.40108259 309.09561045 250.46875 305.37109375 C251.20718837 302.2565372 251.87324334 299.12850567 252.53125 295.99609375 C252.70462891 295.196875 252.87800781 294.39765625 253.05664062 293.57421875 C253.30897461 292.37925781 253.30897461 292.37925781 253.56640625 291.16015625 C253.79082397 290.10368896 253.79082397 290.10368896 254.01977539 289.02587891 C255.21435221 281.96235069 255.62706815 274.98823786 255.63671875 267.83203125 C255.64004715 266.94810699 255.64337555 266.06418274 255.64680481 265.1534729 C255.6518359 263.29291295 255.65421433 261.43234409 255.65405273 259.57177734 C255.6562281 256.77425662 255.67439444 253.97713816 255.69335938 251.1796875 C255.73536372 237.98790877 254.9026966 225.29506227 251.71875 212.43359375 C251.47366699 211.43017944 251.47366699 211.43017944 251.22363281 210.40649414 C250.64735322 208.05912578 250.05812714 205.71520737 249.46875 203.37109375 C248.93713471 201.23316372 248.40590938 199.09513669 247.875 196.95703125 C246.41587865 191.09261801 244.94575772 185.2310257 243.46875 179.37109375 C242.80875 179.37109375 242.14875 179.37109375 241.46875 179.37109375 C241.1284375 177.51484375 241.1284375 177.51484375 240.78125 175.62109375 C239.67063702 170.56341017 237.76454043 165.99595793 235.6875 161.265625 C234.45563497 158.33994555 233.4358986 155.39343313 232.46875 152.37109375 C231.80875 152.37109375 231.14875 152.37109375 230.46875 152.37109375 C230.19611328 151.32308594 230.19611328 151.32308594 229.91796875 150.25390625 C229.66660156 149.34382812 229.41523438 148.43375 229.15625 147.49609375 C228.91261719 146.59117187 228.66898437 145.68625 228.41796875 144.75390625 C227.60205148 142.04996056 227.60205148 142.04996056 224.46875 140.37109375 C223.4765625 138.234375 223.4765625 138.234375 222.59375 135.68359375 C220.7939929 130.91423745 218.71624542 127.30227241 215.46875 123.37109375 C214.80875 123.37109375 214.14875 123.37109375 213.46875 123.37109375 C213.283125 122.56671875 213.0975 121.76234375 212.90625 120.93359375 C210.0630541 113.88741261 204.7861374 108.66575727 199.46875 103.37109375 C198.27491321 102.10237503 197.08655604 100.82848807 195.90234375 99.55078125 C184.27194323 86.85313558 184.27194323 86.85313558 171.46875 75.37109375 C170.80875 75.37109375 170.14875 75.37109375 169.46875 75.37109375 C169.283125 74.819375 169.0975 74.26765625 168.90625 73.69921875 C166.77909872 70.25415852 163.76428092 68.39752475 160.46875 66.12109375 C159.50582031 65.43273437 159.50582031 65.43273437 158.5234375 64.73046875 C155.30521121 62.22333453 155.30521121 62.22333453 151.46875 61.37109375 C151.13875 60.38109375 150.80875 59.39109375 150.46875 58.37109375 C148.50750312 57.2970776 146.49790769 56.31051861 144.46875 55.37109375 C143.2343554 54.65081276 142.00514763 53.92157024 140.78125 53.18359375 C137.65944419 51.13108804 137.65944419 51.13108804 134.46875 51.37109375 C134.46875 50.71109375 134.46875 50.05109375 134.46875 49.37109375 C128.90706762 45.2571378 122.52570283 42.3331819 116.2109375 39.578125 C114.49095952 38.82104068 112.78461182 38.03128254 111.1015625 37.1953125 C80.03474001 21.95966633 45.41110606 17.6947883 11.34417725 18.41607666 Z " fill="#4C504F" transform="translate(238.53125,-0.37109375)"/>
<path d="M0 0 C0.76441406 0.29583984 1.52882813 0.59167969 2.31640625 0.89648438 C6.77623197 2.64937004 11.03472539 4.62024287 15.29638672 6.80688477 C17.8265708 8.02535926 20.45431451 8.82756724 23.125 9.6875 C25.73206173 10.75941758 28.30205512 11.91148617 30.875 13.0625 C36.9126842 15.73273731 42.97602619 18.28297591 49.125 20.6875 C57.02744324 23.79637327 64.86700126 26.96129096 72.57421875 30.53515625 C75.91832252 32.04589226 79.31992771 33.38440555 82.734375 34.7265625 C85.72868594 35.93015807 88.66371416 37.24792945 91.60522461 38.57421875 C94.25972834 39.74702536 96.93200375 40.86635854 99.61328125 41.9765625 C104.97521446 44.20429862 110.32279984 46.46405352 115.66650391 48.73510742 C126.10737376 53.17158093 136.55950967 57.5554518 147.125 61.6875 C147.125 65.6475 147.125 69.6075 147.125 73.6875 C42.185 73.6875 -62.755 73.6875 -170.875 73.6875 C-170.875 69.7275 -170.875 65.7675 -170.875 61.6875 C-164.54912802 58.674687 -158.2517169 55.76570861 -151.6875 53.3125 C-145.45129457 50.97392296 -139.40244188 48.29485733 -133.33081055 45.56567383 C-128.66504749 43.47203028 -123.98336962 41.46953471 -119.21875 39.609375 C-114.40490779 37.7159304 -109.64648063 35.68472281 -104.875 33.6875 C-102.87515371 32.85379785 -100.87515447 32.0204625 -98.875 31.1875 C-97.88113281 30.77242187 -96.88726562 30.35734375 -95.86328125 29.9296875 C-93.90511226 29.11570353 -91.94424852 28.30816539 -89.98046875 27.5078125 C-84.44854192 25.24172199 -79.01899327 22.82583839 -73.625 20.25 C-67.83178495 17.49380253 -61.9673326 15.1517743 -55.93994141 12.96166992 C-50.34691319 10.91243556 -44.90985227 8.57931049 -39.46875 6.15893555 C-35.05520111 4.19620052 -30.61823024 2.34297135 -26.11328125 0.6015625 C-23.02225987 -0.66073943 -20.0477937 -2.15127575 -17.078125 -3.67578125 C-11.31819757 -5.34044113 -5.31139361 -2.11480363 0 0 Z " fill="#4C4F4F" transform="translate(267.875,96.3125)"/>
<path d="M0 0 C9.63112712 -0.02312465 19.26224474 -0.04091571 28.89339352 -0.05181217 C33.36505549 -0.05704074 37.83669853 -0.06413789 42.30834961 -0.07543945 C46.62011973 -0.08626929 50.93187159 -0.09227704 55.24365425 -0.09487724 C56.89236298 -0.09673132 58.54107066 -0.1003516 60.18977165 -0.10573006 C62.49103872 -0.11294178 64.7922294 -0.11399089 67.09350586 -0.11352539 C69.06207802 -0.11685631 69.06207802 -0.11685631 71.07041931 -0.12025452 C74 0 74 0 75 1 C75.17813354 3.12008116 75.26789228 5.24791612 75.3125 7.375 C75.36857422 9.11910156 75.36857422 9.11910156 75.42578125 10.8984375 C75 14 75 14 73.48046875 15.9140625 C71 17 71 17 63 17 C63 73.43 63 129.86 63 188 C65.97 188.66 68.94 189.32 72 190 C73 191 73 191 73.125 194.5 C73 198 73 198 72 199 C69.82194281 199.09429342 67.6407872 199.11742538 65.46069336 199.11352539 C64.77779739 199.11367142 64.09490143 199.11381744 63.39131165 199.1139679 C61.12412386 199.11326876 58.85701726 199.1054764 56.58984375 199.09765625 C55.02185613 199.09579207 53.45386793 199.09436817 51.88587952 199.09336853 C47.75123497 199.08954334 43.61662534 199.07971306 39.48199463 199.06866455 C35.26599602 199.05845044 31.04999178 199.05387091 26.83398438 199.04882812 C18.55597353 199.03809079 10.2779911 199.02101436 2 199 C2 196.03 2 193.06 2 190 C6.455 189.01 6.455 189.01 11 188 C11 131.9 11 75.8 11 18 C7.7 17.34 4.4 16.68 1 16 C-1 14 -1 14 -1.23046875 11.25 C-1.21628906 10.1775 -1.20210938 9.105 -1.1875 8 C-1.18105469 6.9275 -1.17460937 5.855 -1.16796875 4.75 C-1 2 -1 2 0 0 Z " fill="#474A4A" transform="translate(313,183)"/>
<path d="M0 0 C9.63112712 -0.02312465 19.26224474 -0.04091571 28.89339352 -0.05181217 C33.36505549 -0.05704074 37.83669853 -0.06413789 42.30834961 -0.07543945 C46.62011973 -0.08626929 50.93187159 -0.09227704 55.24365425 -0.09487724 C56.89236298 -0.09673132 58.54107066 -0.1003516 60.18977165 -0.10573006 C62.49103872 -0.11294178 64.7922294 -0.11399089 67.09350586 -0.11352539 C69.06207802 -0.11685631 69.06207802 -0.11685631 71.07041931 -0.12025452 C74 0 74 0 75 1 C75.20429655 3.11884707 75.31393738 5.2472027 75.375 7.375 C75.42398438 8.53773438 75.47296875 9.70046875 75.5234375 10.8984375 C75 14 75 14 72.9140625 15.9140625 C70 17 70 17 63 17 C63 73.43 63 129.86 63 188 C65.64 188.33 68.28 188.66 71 189 C73 191 73 191 73.1875 194.5625 C73 198 73 198 72 199 C69.82194281 199.09429342 67.6407872 199.11742538 65.46069336 199.11352539 C64.77779739 199.11367142 64.09490143 199.11381744 63.39131165 199.1139679 C61.12412386 199.11326876 58.85701726 199.1054764 56.58984375 199.09765625 C55.02185613 199.09579207 53.45386793 199.09436817 51.88587952 199.09336853 C47.75123497 199.08954334 43.61662534 199.07971306 39.48199463 199.06866455 C35.26599602 199.05845044 31.04999178 199.05387091 26.83398438 199.04882812 C18.55597353 199.03809079 10.2779911 199.02101436 2 199 C2 196.03 2 193.06 2 190 C7.625 188 7.625 188 11 188 C11 131.57 11 75.14 11 17 C7.7 16.67 4.4 16.34 1 16 C0 15 0 15 -0.09765625 11.62109375 C-0.09098369 10.22652923 -0.07902532 8.83198257 -0.0625 7.4375 C-0.05798828 6.72658203 -0.05347656 6.01566406 -0.04882812 5.28320312 C-0.03700864 3.52209987 -0.01907263 1.76103964 0 0 Z " fill="#484B4B" transform="translate(124,183)"/>
<path d="M0 0 C1.31238144 0.00222061 2.62476288 0.00444122 3.97691345 0.00672913 C4.6988237 0.0065831 5.42073395 0.00643707 6.16452026 0.00628662 C8.56156879 0.00698583 10.95854054 0.01477857 13.35557556 0.02259827 C15.0132442 0.02446242 16.67091338 0.02588633 18.32858276 0.02688599 C22.69996145 0.03071139 27.07130712 0.04054186 31.44267273 0.05158997 C35.89996392 0.0618036 40.35726043 0.0663835 44.81455994 0.07142639 C53.56652993 0.08216412 62.31846672 0.09976109 71.07041931 0.12025452 C71.07041931 5.07025452 71.07041931 10.02025452 71.07041931 15.12025452 C66.07041931 17.12025452 66.07041931 17.12025452 59.07041931 17.12025452 C59.07041931 73.55025452 59.07041931 129.98025452 59.07041931 188.12025452 C62.37041931 188.78025452 65.67041931 189.44025452 69.07041931 190.12025452 C69.16807556 196.27259827 69.16807556 196.27259827 69.07041931 198.12025452 C67.21143869 199.97923514 64.12081734 199.24803116 61.63877869 199.24964905 C60.63147453 199.25227753 60.63147453 199.25227753 59.6038208 199.25495911 C57.37391103 199.25937681 55.14407995 199.25643994 52.91416931 199.25306702 C51.37099696 199.25374008 49.8278247 199.25471012 48.28465271 199.25596619 C45.04640191 199.25744305 41.80817864 199.25528898 38.56993103 199.25062561 C34.40999408 199.24492832 30.25012165 199.24820739 26.09018707 199.25419807 C22.90242523 199.25780401 19.7146788 199.25666496 16.5269165 199.25407028 C14.99264519 199.2534011 13.45837249 199.25422913 11.92410278 199.25654984 C9.78338391 199.25907689 7.64277089 199.25523506 5.50205994 199.24964905 C3.67124878 199.24845566 3.67124878 199.24845566 1.80345154 199.24723816 C-0.92958069 199.12025452 -0.92958069 199.12025452 -1.92958069 198.12025452 C-2.0707323 195.44966601 -1.97205176 192.79593214 -1.92958069 190.12025452 C3.02041931 189.13025452 3.02041931 189.13025452 8.07041931 188.12025452 C8.07041931 131.69025452 8.07041931 75.26025452 8.07041931 17.12025452 C4.77041931 16.79025452 1.47041931 16.46025452 -1.92958069 16.12025452 C-3.92958069 14.12025452 -3.92958069 14.12025452 -4.16004944 11.11634827 C-4.14586975 9.94201233 -4.13169006 8.76767639 -4.11708069 7.55775452 C-4.10741272 5.79238342 -4.10741272 5.79238342 -4.09754944 3.99134827 C-3.87334371 0.15899445 -3.87334371 0.15899445 0 0 Z " fill="#484A4C" transform="translate(221.92958068847656,182.87974548339844)"/>
<path d="M0 0 C1.02835935 -0.00322445 2.05671869 -0.00644889 3.11624044 -0.00977105 C4.83156944 -0.00744815 4.83156944 -0.00744815 6.58155155 -0.00507832 C8.38768841 -0.00847665 8.38768841 -0.00847665 10.23031288 -0.01194364 C13.58767422 -0.01720211 16.94498225 -0.01792458 20.30234396 -0.01674926 C23.91726262 -0.016546 27.53217314 -0.02205684 31.14708805 -0.02680683 C38.23498315 -0.03513017 45.32286994 -0.03786243 52.41076951 -0.03841921 C58.16921645 -0.03889357 63.92766062 -0.04094429 69.68610668 -0.04411983 C85.99463948 -0.05293095 102.30316569 -0.05753849 118.61170088 -0.05678936 C119.49177373 -0.0567494 120.37184658 -0.05670945 121.27858829 -0.05666828 C122.15972953 -0.0566274 123.04087077 -0.05658652 123.94871325 -0.0565444 C138.23510007 -0.05613778 152.52146055 -0.06571006 166.80783974 -0.07980665 C181.45962373 -0.09415029 196.11139485 -0.10107795 210.76318604 -0.10021287 C218.99604279 -0.09988021 227.22887193 -0.10265756 235.46172237 -0.11339092 C242.47049829 -0.12246951 249.47923409 -0.12469305 256.48801332 -0.1178815 C260.06694206 -0.11460287 263.6457937 -0.11460759 267.22471523 -0.12323475 C271.09727769 -0.13247409 274.9697259 -0.12635884 278.84229374 -0.11860371 C279.98361568 -0.12374727 281.12493763 -0.12889083 282.30084509 -0.13419026 C283.84729573 -0.12729207 283.84729573 -0.12729207 285.42498779 -0.12025452 C286.31982626 -0.12047188 287.21466473 -0.12068925 288.13661951 -0.12091321 C290.27541447 0.12863445 290.27541447 0.12863445 292.27541447 2.12863445 C292.47390517 4.67398586 292.55393221 7.08580204 292.52541447 9.62863445 C292.53314884 10.31828289 292.54088322 11.00793133 292.54885197 11.7184782 C292.52874739 16.87530153 292.52874739 16.87530153 290.27541447 19.12863445 C288.14418221 19.37933278 288.14418221 19.37933278 285.44339848 19.38031673 C284.41653148 19.38553223 283.38966448 19.39074772 282.3316803 19.39612126 C281.19493142 19.39165982 280.05818254 19.38719838 278.88698673 19.38260174 C277.68612462 19.38572172 276.48526251 19.3888417 275.24801064 19.39205623 C271.90424904 19.39867584 268.5607106 19.39626292 265.21696234 19.39008379 C261.61500893 19.38557483 258.0130756 19.39253529 254.41112614 19.39804363 C247.35076143 19.40695598 240.29043914 19.40500745 233.23007274 19.39921835 C227.49405394 19.39470909 221.75804707 19.39408576 216.02202702 19.39626598 C214.79936535 19.39672568 214.79936535 19.39672568 213.55200344 19.39719467 C211.89633997 19.39783409 210.2406765 19.39848252 208.58501303 19.39913985 C193.04489902 19.40484854 177.50480858 19.39827682 161.96469843 19.38753912 C148.61871437 19.37860312 135.27276509 19.38015501 121.92678165 19.38937664 C106.44382847 19.40006977 90.96089596 19.40429917 75.47793961 19.39815211 C73.82822705 19.39751499 72.17851448 19.39688625 70.52880192 19.39626598 C69.31113639 19.39580316 69.31113639 19.39580316 68.06887156 19.39533098 C62.33702447 19.39360116 56.60519044 19.3965253 50.87334538 19.40122509 C43.89203759 19.40682332 36.91077481 19.40533987 29.92947221 19.3946636 C26.36471628 19.38939256 22.80003548 19.38737436 19.23528004 19.39396191 C15.37809122 19.40098227 11.52102654 19.39262316 7.6638422 19.38260174 C6.52709332 19.38706318 5.39034445 19.39152462 4.21914864 19.39612126 C3.19228164 19.39090577 2.16541464 19.38569027 1.10743046 19.38031673 C0.21617183 19.37999203 -0.6750868 19.37966733 -1.59335327 19.37933278 C-3.72458553 19.12863445 -3.72458553 19.12863445 -5.72458553 17.12863445 C-5.89629456 14.40166222 -5.95704233 11.78956978 -5.91208553 9.06613445 C-5.911441 8.3204118 -5.91079647 7.57468914 -5.91013241 6.80636883 C-5.8545322 0.00460958 -5.8545322 0.00460958 0 0 Z " fill="#424845" transform="translate(112.72458553314209,391.8713655471802)"/>
<path d="M0 0 C0.33 0 0.66 0 1 0 C0.96970703 0.55945313 0.93941406 1.11890625 0.90820312 1.6953125 C-0.91629087 36.09762714 -0.91629087 36.09762714 1.5546875 70.38671875 C2.15710288 75.2747383 2.19487402 80.08484422 2 85 C1.67 85 1.34 85 1 85 C-2.01794432 71.07497881 -2.4362573 57.50245687 -2.33618164 43.28491211 C-2.31242459 39.67604437 -2.31566527 36.06791153 -2.32226562 32.45898438 C-2.31669161 30.12239151 -2.30958348 27.78580169 -2.30078125 25.44921875 C-2.30169266 24.39159836 -2.30260406 23.33397797 -2.30354309 22.24430847 C-2.23305031 14.68594081 -1.31989886 7.43873091 0 0 Z " fill="#B1B3B4" transform="translate(2,217)"/>
<path d="M0 0 C2.81269605 0.14260703 5.62511304 0.28901306 8.4375 0.4375 C9.6121582 0.49647461 9.6121582 0.49647461 10.81054688 0.55664062 C11.98520508 0.61948242 11.98520508 0.61948242 13.18359375 0.68359375 C14.24404907 0.73858032 14.24404907 0.73858032 15.32592773 0.79467773 C17.54595246 0.96513704 19.75867399 1.22773573 21.96679688 1.51367188 C28.08703881 2.20513461 34.19579282 2.12410805 40.34765625 2.09765625 C41.60009628 2.0962413 42.85253632 2.09482635 44.14292908 2.09336853 C47.44231371 2.08874587 50.74164776 2.07979075 54.04101562 2.06866455 C57.41991564 2.05836054 60.79882311 2.05385182 64.17773438 2.04882812 C70.78517573 2.03784325 77.39258374 2.02113844 84 2 C84 2.33 84 2.66 84 3 C77.1994079 4.24657745 70.4330221 4.17963494 63.53515625 4.203125 C62.22904892 4.20882507 60.92294159 4.21452515 59.57725525 4.22039795 C56.81443905 4.2308663 54.05165155 4.23673463 51.28881836 4.24023438 C48.48725233 4.24460196 45.68599722 4.25843374 42.88452148 4.28125 C13.08966194 4.51959682 13.08966194 4.51959682 0 1 C0 0.67 0 0.34 0 0 Z " fill="#A5A6A8" transform="translate(209,508)"/>
<path d="M0 0 C0.33 0 0.66 0 1 0 C0.66366564 7.97112445 -0.53915851 15.71823882 -1.9375 23.5625 C-2.19225098 25.02647217 -2.19225098 25.02647217 -2.45214844 26.52001953 C-2.62133789 27.44282715 -2.79052734 28.36563477 -2.96484375 29.31640625 C-3.1155835 30.14599854 -3.26632324 30.97559082 -3.42163086 31.83032227 C-4 34 -4 34 -6 37 C-6.1882217 30.66947689 -5.63364467 25.19685675 -4.125 19.0625 C-3.75704667 17.493669 -3.38985412 15.92465937 -3.0234375 14.35546875 C-2.84651367 13.60958496 -2.66958984 12.86370117 -2.48730469 12.09521484 C-1.55432688 8.08378419 -0.7824959 4.04289547 0 0 Z " fill="#B7B8BA" transform="translate(510,283)"/>
<path d="M0 0 C0.33 0 0.66 0 1 0 C3.38297872 19.34042553 3.38297872 19.34042553 3 29 C2.67 29 2.34 29 2 29 C-0.52816306 19.36137832 -0.18269137 9.88563297 0 0 Z " fill="#9C9EA0" transform="translate(1,273)"/>
<path d="M0 0 C5.39845472 0.91583056 9.84430742 3.08762177 14.75 5.4375 C15.62527344 5.84548828 16.50054687 6.25347656 17.40234375 6.67382812 C18.23378906 7.06892578 19.06523437 7.46402344 19.921875 7.87109375 C20.68081055 8.23130615 21.43974609 8.59151855 22.22167969 8.96264648 C24 10 24 10 25 12 C18.83797235 10.52647165 13.6013035 7.91825299 8 5 C6.45982912 4.22618232 4.91830209 3.45505378 3.375 2.6875 C2.26125 2.130625 1.1475 1.57375 0 1 C0 0.67 0 0.34 0 0 Z " fill="#CFCFD1" transform="translate(355,20)"/>
<path d="M0 0 C0 0.99 0 1.98 0 3 C-1.66666667 4.66666667 -3.33333333 6.33333333 -5 8 C-5.144375 8.66 -5.28875 9.32 -5.4375 10 C-6.39284897 13.39679635 -9.26046196 14.90163044 -12 17 C-12.66 16.67 -13.32 16.34 -14 16 C-12.2308289 13.89441606 -10.4597399 11.79049842 -8.6875 9.6875 C-8.18798828 9.09259766 -7.68847656 8.49769531 -7.17382812 7.88476562 C-6.44389648 7.01948242 -6.44389648 7.01948242 -5.69921875 6.13671875 C-5.25408936 5.60780029 -4.80895996 5.07888184 -4.3503418 4.53393555 C-2.96013395 2.95471373 -1.50273504 1.47187013 0 0 Z " fill="#C1C2C3" transform="translate(67,82)"/>
<path d="M0 0 C5.08587145 0.64874896 9.55113277 2.13086657 14.3125 3.9375 C15.04017578 4.20240234 15.76785156 4.46730469 16.51757812 4.74023438 C21.87647017 6.75294033 21.87647017 6.75294033 23 9 C16.9385672 8.66325373 12.72670341 7.1396537 7.39453125 4.25390625 C4.98021085 2.98963733 2.54434261 1.97164061 0 1 C0 0.67 0 0.34 0 0 Z " fill="#C2C5C7" transform="translate(329,10)"/>
<path d="M0 0 C0.66 0 1.32 0 2 0 C1.46105575 4.59808129 0.23428472 7.86784369 -2.0625 11.875 C-2.61035156 12.84179688 -3.15820312 13.80859375 -3.72265625 14.8046875 C-4.14417969 15.52914063 -4.56570313 16.25359375 -5 17 C-5.61328125 15.2109375 -5.61328125 15.2109375 -6 13 C-5.06005621 11.24975983 -4.11054198 9.50170739 -3.05859375 7.81640625 C-1.61311676 5.33615975 -0.80345875 2.74515074 0 0 Z " fill="#B6B7B9" transform="translate(491,353)"/>
<path d="M0 0 C1 2 1 2 0.125 5 C-1 8 -1 8 -2 10 C-2.66 10 -3.32 10 -4 10 C-4.12375 10.94875 -4.2475 11.8975 -4.375 12.875 C-5 16 -5 16 -7 18 C-6.44380331 13.3110507 -5.11817327 9.80075733 -2.9375 5.625 C-2.38964844 4.56539062 -1.84179688 3.50578125 -1.27734375 2.4140625 C-0.85582031 1.61742187 -0.43429688 0.82078125 0 0 Z " fill="#B8B9BD" transform="translate(26,142)"/>
<path d="M0 0 C0.83438967 2.33629107 1.22334675 3.50176494 0.1875 5.8125 C-0.204375 6.534375 -0.59625 7.25625 -1 8 C-1.33 9.216875 -1.66 10.43375 -2 11.6875 C-2.33 12.780625 -2.66 13.87375 -3 15 C-3.99 15.495 -3.99 15.495 -5 16 C-4.02541328 10.19834261 -2.98746845 5.16017278 0 0 Z " fill="#B9BBBE" transform="translate(18,160)"/>
<path d="M0 0 C6.57315478 -0.36517527 11.79485526 0.86380263 18 3 C14.02549507 4.51553092 10.79518851 3.49888623 6.75 2.5625 C5.48671875 2.27503906 4.2234375 1.98757813 2.921875 1.69140625 C1.95765625 1.46324219 0.9934375 1.23507812 0 1 C0 0.67 0 0.34 0 0 Z " fill="#B8B9BA" transform="translate(190,504)"/>
<path d="M0 0 C0.66 0 1.32 0 2 0 C0.84941444 5.39795989 -0.42421759 10.70987333 -2 16 C-2.33 16 -2.66 16 -3 16 C-3.45496035 10.23716896 -1.79099852 5.39431697 0 0 Z " fill="#B9BBBD" transform="translate(500,328)"/>
<path d="M0 0 C0.66 0 1.32 0 2 0 C1.42235003 3.3503698 0.41423154 4.68233772 -2 7 C-3.17574711 9.09989652 -3.17574711 9.09989652 -4 11 C-4.66 11 -5.32 11 -6 11 C-4.54997977 6.89160936 -2.6020866 3.49655387 0 0 Z " fill="#B8B9BA" transform="translate(49,103)"/>
<path d="M0 0 C0.66 0.33 1.32 0.66 2 1 C1.01 1.33 0.02 1.66 -1 2 C-1.268125 2.61875 -1.53625 3.2375 -1.8125 3.875 C-3.54023664 6.96673926 -5.77882955 7.72495336 -9 9 C-9.66 8.67 -10.32 8.34 -11 8 C-7.25 5 -7.25 5 -5 5 C-5 4.34 -5 3.68 -5 3 C-2.625 1.3125 -2.625 1.3125 0 0 Z " fill="#C7C9C9" transform="translate(119,38)"/>
<path d="M0 0 C-1.40751221 0.86916887 -2.8264521 1.71985149 -4.25 2.5625 C-5.03890625 3.03816406 -5.8278125 3.51382812 -6.640625 4.00390625 C-9.30844625 5.13022151 -10.34501768 5.0169313 -13 4 C-4.33663366 -1.44554455 -4.33663366 -1.44554455 0 0 Z " fill="#C7C8CA" transform="translate(160,19)"/>
<path d="M0 0 C0.66 0.33 1.32 0.66 2 1 C-2.296875 5.00390625 -2.296875 5.00390625 -4 6 C-6.203125 5.65234375 -6.203125 5.65234375 -8 5 C-6.71475739 4.13619741 -5.42157581 3.28419631 -4.125 2.4375 C-3.04605469 1.72400391 -3.04605469 1.72400391 -1.9453125 0.99609375 C-1.30335937 0.66738281 -0.66140625 0.33867188 0 0 Z " fill="#C1C2C4" transform="translate(129,32)"/>
<path d="M0 0 C1 2 1 2 0.44140625 3.9453125 C0.15136719 4.66460937 -0.13867188 5.38390625 -0.4375 6.125 C-0.72496094 6.84945312 -1.01242188 7.57390625 -1.30859375 8.3203125 C-1.53675781 8.87460938 -1.76492187 9.42890625 -2 10 C-2.66 10 -3.32 10 -4 10 C-3.52449439 8.51965236 -3.04448784 7.04074979 -2.5625 5.5625 C-2.29566406 4.73878906 -2.02882813 3.91507813 -1.75390625 3.06640625 C-1 1 -1 1 0 0 Z " fill="#BABBBC" transform="translate(31,132)"/>
</svg>
